<?xml version="1.0" encoding="UTF-8"?> <svg xmlns="http://www.w3.org/2000/svg" width="30" height="64" viewBox="0 0 30 64" fill="none"><path d="M5.76629 17.4514H23.3259L25.4256 11.6371L28.3046 3.6799L20.9535 7.93127L19.6114 11.6371H16.7021L17.2736 10.0613V10.057L18.6027 6.38138V6.37705L14.5461 0L10.4939 6.38138L11.823 10.0613L12.3944 11.6371H9.48516L8.14307 7.9356L0.787598 3.6799L3.66658 11.6371L5.76629 17.4514Z" fill="#FFC933"></path><path d="M17.4557 26.1789V37.8204H23.2743V29.0882H29.0929V55.5835L23.2743 58.9474V43.639H17.4557V62.3156L14.5464 63.9997L11.6371 62.3156V45.3188L14.5464 43.6347H7.19529V43.639H5.81857V58.9474L0 55.5835V29.0882H5.81857V37.8204H11.6371V26.1789H0V20.3604H29.0929V26.1789H17.4557Z" fill="#FFC933"></path></svg> 